<svg xmlns="http://www.w3.org/2000/svg" width="18.61" height="24.47" viewBox="0 0 18.61 24.47"><defs><style>.a{fill:none;stroke:#1a1311;stroke-linecap:round;stroke-miterlimit:10;stroke-width:1.42px;}</style></defs><path class="a" d="M9.3.71A8.54,8.54,0,0,1,11,.87a9.06,9.06,0,0,1,1.61.49,8.55,8.55,0,0,1,1.49.8,8.72,8.72,0,0,1,2.37,2.37,8.59,8.59,0,0,1,1.28,3.1,8.34,8.34,0,0,1,0,3.35,8.3,8.3,0,0,1-.49,1.61,8.5,8.5,0,0,1-.79,1.49,8.72,8.72,0,0,1-2.37,2.37,8.5,8.5,0,0,1-1.49.79,8.3,8.3,0,0,1-1.61.49,8.34,8.34,0,0,1-3.35,0,8.59,8.59,0,0,1-3.1-1.28,7.88,7.88,0,0,1-1.3-1.07,8.31,8.31,0,0,1-1.07-1.3,8.55,8.55,0,0,1-.8-1.49A9.06,9.06,0,0,1,.87,11a8.85,8.85,0,0,1,0-3.35A9.17,9.17,0,0,1,1.36,6a8.46,8.46,0,0,1,.8-1.48,8.31,8.31,0,0,1,1.07-1.3,7.88,7.88,0,0,1,1.3-1.07A8.46,8.46,0,0,1,6,1.36,9.17,9.17,0,0,1,7.63.87,8.51,8.51,0,0,1,9.3.71Z"/><line class="a" x1="14.2" y1="17.26" x2="17.9" y2="23.76"/></svg>