<svg xmlns="http://www.w3.org/2000/svg" width="28.15" height="28.15" viewBox="0 0 28.15 28.15"><defs><style>.a{fill:#fff;}</style></defs><path class="a" d="M8.23,2.62A5.62,5.62,0,0,0,2.62,8.23V19.92a5.61,5.61,0,0,0,5.61,5.61H19.92a5.61,5.61,0,0,0,5.61-5.61V8.23a5.61,5.61,0,0,0-5.61-5.61ZM19.92,28.15H8.23A8.24,8.24,0,0,1,0,19.92V8.23A8.24,8.24,0,0,1,8.23,0H19.92a8.24,8.24,0,0,1,8.23,8.23V19.92A8.24,8.24,0,0,1,19.92,28.15Z"/><path class="a" d="M21.6,4.81a1.71,1.71,0,0,1,.67.14,1.75,1.75,0,0,1,.95,1,1.7,1.7,0,0,1,.13.67,1.74,1.74,0,0,1-.13.67,1.78,1.78,0,0,1-.38.57,1.73,1.73,0,0,1-.57.38,1.79,1.79,0,0,1-1.34,0,1.73,1.73,0,0,1-.57-.38A2,2,0,0,1,20,7.24a1.74,1.74,0,0,1-.13-.67A1.7,1.7,0,0,1,20,5.9a1.73,1.73,0,0,1,.38-.57A1.59,1.59,0,0,1,20.93,5,1.71,1.71,0,0,1,21.6,4.81Z"/><path class="a" d="M14.08,9.42a4.66,4.66,0,1,0,4.65,4.66A4.66,4.66,0,0,0,14.08,9.42Zm0,11.93a7.28,7.28,0,1,1,7.27-7.27A7.29,7.29,0,0,1,14.08,21.35Z"/></svg>