<svg xmlns="http://www.w3.org/2000/svg" width="48.11" height="42.393" viewBox="0 0 48.11 42.393"><g transform="translate(-82 -539.004)"><path d="M19.15,21.24a2.42,2.42,0,0,1-2.41,2.41H2.41a2.41,2.41,0,1,1,0-4.82H16.74a2.42,2.42,0,0,1,2.41,2.41" transform="translate(82 539)" fill="#231815"/><path d="M48.11,21.24a2.41,2.41,0,0,1-2.41,2.41H31.38a2.41,2.41,0,0,1,0-4.82H45.7a2.42,2.42,0,0,1,2.41,2.41" transform="translate(82 539)" fill="#231815"/><path d="M21.6,17a2.41,2.41,0,0,1-3.29-.88L11.15,3.7a2.41,2.41,0,1,1,4.17-2.41L22.48,13.7A2.41,2.41,0,0,1,21.6,17" transform="translate(82 539)" fill="#231815"/><path d="M36.08,42.07a2.4,2.4,0,0,1-3.29-.88l-7.16-12.4a2.41,2.41,0,1,1,4.17-2.41L37,38.78a2.4,2.4,0,0,1-.88,3.29" transform="translate(82 539)" fill="#231815"/><path d="M21.6,25.49a2.42,2.42,0,0,1,.88,3.3l-7.16,12.4a2.41,2.41,0,0,1-4.17-2.41l7.16-12.4a2.42,2.42,0,0,1,3.29-.89" transform="translate(82 539)" fill="#231815"/><path d="M36.08.41A2.42,2.42,0,0,1,37,3.7L29.8,16.11a2.41,2.41,0,0,1-4.17-2.41L32.79,1.29A2.41,2.41,0,0,1,36.08.41" transform="translate(82 539)" fill="#231815"/></g></svg>