<svg xmlns="http://www.w3.org/2000/svg" width="167.74" height="42.48" viewBox="0 0 167.74 42.48"><defs><style>.a{fill:#231815;}</style></defs><path class="a" d="M19.15,21.24a2.42,2.42,0,0,1-2.41,2.41H2.41a2.41,2.41,0,0,1,0-4.82H16.74a2.42,2.42,0,0,1,2.41,2.41"/><path class="a" d="M48.11,21.24a2.41,2.41,0,0,1-2.41,2.41H31.38a2.41,2.41,0,1,1,0-4.82H45.7a2.42,2.42,0,0,1,2.41,2.41"/><path class="a" d="M21.6,17a2.41,2.41,0,0,1-3.29-.88L11.15,3.7a2.41,2.41,0,1,1,4.17-2.41L22.48,13.7A2.41,2.41,0,0,1,21.6,17"/><path class="a" d="M36.08,42.07a2.4,2.4,0,0,1-3.29-.88l-7.16-12.4a2.41,2.41,0,1,1,4.17-2.41L37,38.78a2.4,2.4,0,0,1-.88,3.29"/><path class="a" d="M21.6,25.49a2.42,2.42,0,0,1,.88,3.3l-7.16,12.4a2.41,2.41,0,0,1-4.17-2.41l7.16-12.4a2.42,2.42,0,0,1,3.29-.89"/><path class="a" d="M36.08.41A2.42,2.42,0,0,1,37,3.7L29.8,16.11a2.41,2.41,0,0,1-4.17-2.41L32.79,1.29A2.41,2.41,0,0,1,36.08.41"/><path class="a" d="M55.81,18.83A9.78,9.78,0,0,0,60.46,20c4.64,0,7.07-3.14,7.07-5.94v0c0-3-2.09-4.46-4.52-5.57-2-.86-5.38-1.94-5.38-4.58,0-2.25,1.94-3.3,4-3.3,2.21,0,3.44,1.08,4,3.27.06.24.18.7.49.7a.33.33,0,0,0,.34-.36c0-.8-.1-1.61-.13-2.4,0-.56,0-.93-.55-1.14A12.62,12.62,0,0,0,61.63,0c-3,0-5.94,2-5.94,5.2,0,2.74,2.19,4.06,4.46,5,.52.22,1.05.47,1.57.68,2.12.86,3.75,2.12,3.75,4.58s-2.27,4-4.58,4a4.13,4.13,0,0,1-4.37-3.29c-.18-.89-.18-2-.62-2s-.39.19-.42.62c-.07.86-.1,1.9-.1,2.83C55.38,18.06,55.41,18.58,55.81,18.83Z"/><path class="a" d="M68.56,19c-.31,0-.8,0-.8.37s.25.46.52.46c.52,0,1,0,1.57-.06s1.23-.06,2.18-.06H82.19c.27,0,.33,0,.4-.49.12-1,.3-2,.43-3a6.17,6.17,0,0,0,.12-.73c0-.22-.09-.34-.31-.34s-.43.46-.68,1C81,18.86,79.42,19,76.77,19c-2.43,0-3.78,0-3.78-2.86V10.74c0-1.05.31-1.05,1.54-1.05,3.47,0,4.27.15,4.58,1.29.15.56.15,1.48.62,1.48.15,0,.33-.06.33-.55,0-1-.12-1.91-.12-2.9s.12-1.78.12-2.64a.29.29,0,0,0-.33-.31c-.43,0-.47.8-.56,1.29-.28,1.48-.65,1.48-3.72,1.48C73,8.83,73,8.83,73,7.38V2.92c0-.67,0-1.07.31-1.32s1-.28,2.52-.28c3.69,0,4.49.43,5.29,2.13.15.3.31.67.46,1s.34.49.49.49.28-.34.28-.64V1.63c0-.92,0-1.14-.43-1.14-2.61,0-5.2.12-7.85.12-1.9,0-3.87-.12-5.78-.12a.48.48,0,0,0-.52.47c0,.36.49.36.8.36,2,0,2,.4,2,2.53V16.37C70.56,18.55,70.56,19,68.56,19Z"/><path class="a" d="M85.32,19c-.37,0-.77,0-.77.37s.25.4.53.4c1.16,0,2.33-.12,3.5-.12s2.28.12,3.45.12c.27,0,.52-.06.52-.4s-.4-.37-.68-.37c-2.12,0-2.12-.37-2.12-2.55V3.85c0-2.22,0-2.53,2-2.53.28,0,.8,0,.8-.4S92.3.49,92,.49c-1.17,0-2.34.12-3.51.12S86.24.49,85.08.49c-.31,0-.53.09-.53.43s.5.4.77.4c2,0,2,.31,2,2.53V16.46C87.32,18.67,87.32,19,85.32,19Z"/><path class="a" d="M96.62,32.15c-.43,0-.86-.1-.86-.59v-5.5c0-2.16.06-2.47,2.4-2.47,2.73,0,4.43,1.54,4.43,4.37C102.59,32.15,98.37,32.15,96.62,32.15ZM80,32.15c-.43,0-.86-.1-.86-.59v-5.5c0-2.16.06-2.47,2.4-2.47C84.28,23.59,86,25.13,86,28,86,32.15,81.76,32.15,80,32.15ZM65.46,34.21h-4c-.34,0-.65,0-.65-.19a2.37,2.37,0,0,1,.09-.36c.71-1.88,1.39-3.73,2.13-5.6.12-.31.34-.93.52-.93s.4.68.49.93c.68,1.78,1.39,3.47,2.1,5.22,0,.07.21.56.21.68S66.1,34.21,65.46,34.21Zm41.62,7.26c-1.36,0-1.82-1.17-2.37-2.25l-2.49-4.8c-.43-.8-.9-1.87-1.88-2a6.47,6.47,0,0,0,1.6-.4,4.63,4.63,0,0,0,3.26-4.37c0-3.22-2.89-4.67-5.81-4.67-1.76,0-3.48.12-5.26.12-1,0-2-.12-3-.12-.34,0-.55.12-.55.46s.49.37.77.37c2,0,2,.31,2,2.55V38.91c0,2.22,0,2.56-2,2.56h-.86c-1.36,0-1.82-1.17-2.37-2.25l-2.49-4.8c-.43-.8-.9-1.87-1.88-2a6.47,6.47,0,0,0,1.6-.4,4.64,4.64,0,0,0,3.26-4.37c0-3.22-2.89-4.67-5.81-4.67-1.76,0-3.48.12-5.26.12-1,0-2-.12-3-.12-.34,0-.55.12-.55.46s.49.37.77.37c2,0,2,.31,2,2.55V38.91c0,2.22,0,2.56-2,2.56H73.58c-1.51,0-2-1.78-2.52-3C69,33.35,66.9,28.18,64.84,23c-.06-.18-.15-.58-.46-.58s-.4.43-.49.67c-.15.4-.31.77-.46,1.17L58,38.55c-1,2.7-1.35,2.92-2.71,2.92-.27,0-.86,0-.86.4s.28.37.56.37c.49,0,2.67-.13,3.14-.13s2,.13,2.58.13c.31,0,.74,0,.74-.37s-.4-.4-.68-.4c-.58,0-2.18,0-2.18-1.11a17.16,17.16,0,0,1,1.35-4c.49-1.23.52-1.23,1.2-1.23h4.49c1.48,0,1.26,0,1.91,1.57a19.44,19.44,0,0,1,1.41,3.84c0,.93-1.17.93-2,.93-.3,0-.89,0-.89.46,0,.28.31.31.5.31,1.13,0,2.3-.13,3.41-.13,1.35,0,2.71.13,4.06.13h.46c1.17,0,2.34-.13,3.51-.13s2.27.13,3.44.13c.28,0,.52-.06.52-.4s-.39-.37-.67-.37c-2.12,0-2.12-.37-2.12-2.56V34.18c0-1.11,0-1.39.64-1.39,2.37,0,2.4.07,3.6,2.4,1,2,2,4,3,6,.24.46.43,1.05,1,1.05.43,0,1.2-.06,1.63-.06s1.23.06,1.63.06h.37c1.17,0,2.34-.13,3.51-.13s2.27.13,3.44.13c.28,0,.53-.06.53-.4s-.4-.37-.68-.37c-2.12,0-2.12-.37-2.12-2.56V34.18c0-1.11,0-1.39.64-1.39,2.37,0,2.4.07,3.6,2.4,1,2,2,4,3,6,.24.46.43,1.05,1,1.05.43,0,1.2-.06,1.63-.06s1.23.06,1.63.06.56,0,.56-.34S107.38,41.47,107.08,41.47Z"/><path class="a" d="M163.21,31c-2-.86-5.38-1.94-5.38-4.59,0-2.24,1.94-3.29,4-3.29,2.21,0,3.44,1.08,4,3.26.06.25.18.71.49.71a.33.33,0,0,0,.34-.37c0-.8-.09-1.6-.13-2.4,0-.55,0-.92-.55-1.14a12.61,12.61,0,0,0-4.12-.67c-3,0-5.94,2-5.94,5.2,0,2.74,2.18,4.06,4.46,5l1.57.68c2.12.86,3.75,2.12,3.75,4.58s-2.27,4-4.58,4a4.13,4.13,0,0,1-4.37-3.29c-.18-.89-.18-2-.61-2s-.4.18-.43.61c-.07.86-.1,1.91-.1,2.83,0,.5,0,1,.43,1.26a9.78,9.78,0,0,0,4.65,1.2c4.64,0,7.08-3.14,7.08-5.93v0C167.74,33.53,165.64,32.05,163.21,31Z"/><path class="a" d="M155.89,23.41a.48.48,0,0,0-.52-.46c-.77,0-1.51.12-2.24.12s-1.54-.12-2.28-.12c-.28,0-.53.12-.53.4s.22.43.71.43,1.35,0,1.35.8a4.87,4.87,0,0,1-.46,1.6l-4.64,11.23c-.19.46-.43,1.17-.59,1.17s-.39-.65-.58-1.11l-2-4.55a5.43,5.43,0,0,1-.58-1.67,6.16,6.16,0,0,1,.7-2l1.42-3c.55-1.17,1-2.55,2.52-2.55.52,0,.89,0,.89-.43a.38.38,0,0,0-.4-.4c-.74,0-1.47.12-2.21.12S144.94,23,144.2,23c-.3,0-.58.12-.58.46s.34.37.61.37c.43,0,1.14,0,1.14.62s-1.69,3.87-1.94,4.52-.49,1.08-.61,1.08-.37-.53-.68-1.21a31,31,0,0,1-1.78-4.3c0-.55.55-.71,1-.71s1,0,1-.37a.49.49,0,0,0-.53-.46c-1,0-2,.12-3,.12s-2-.12-3-.12a.42.42,0,0,0-.46.43c0,.4.39.4,1,.4s1.07.52,1.78,2l2.56,5.51a6.27,6.27,0,0,1,.61,1.78,3.28,3.28,0,0,1-.37,1.2l-1.6,3.45c-.21.46-.46,1-.64,1s-.4-.49-.68-1.11L132.55,25.9a4.13,4.13,0,0,1-.5-1.44c0-.65.74-.68,1.2-.68s.74,0,.74-.4-.28-.43-.55-.43c-1,0-2,.12-3,.12s-2-.12-3-.12c-.28,0-.49.12-.49.37,0,.46.4.46,1,.46.8,0,1,.28,2,2.4l7,15.13c.18.4.49,1.17.76,1.17s.5-.58.74-1.1l3.42-7.3H142l3.26,7.45c.12.25.4.95.65.95s.49-.61.67-1.07l6.25-15.08c.83-2,1.23-2.55,2.21-2.55C155.49,23.78,155.89,23.78,155.89,23.41Z"/><path class="a" d="M126.21,32.45c0,6.74-4.65,9.17-7.84,9.17-4.13,0-8-3-8-9.17s3.93-9.16,8-9.16c3.38,0,7.84,2.61,7.84,9.13Zm-7.91-10c-5.53,0-10.73,4.4-10.73,10v0c0,5.6,5.2,10,10.73,10,5.85,0,10.71-4.09,10.71-10S124.15,22.46,118.3,22.46Z"/></svg>